<?xml version="1.0" encoding="UTF-8"?>
<svg width="329px" height="93px" viewBox="0 0 329 93" version="1.1" xmlns="http://www.w3.org/2000/svg" xmlns:xlink="http://www.w3.org/1999/xlink">
    <title>Group 8</title>
    <g id="Page-1" stroke="none" stroke-width="1" fill="none" fill-rule="evenodd">
        <g id="brand-guidelines" transform="translate(-250.000000, -313.000000)">
            <g id="Group-8" transform="translate(249.999778, 313.008164)">
                <path d="M270.150425,74.9918357 L276.021003,74.9918357 L276.021003,18.9929496 L270.150425,18.9929496 L270.150425,74.9918357 Z M263.176491,19.1110178 L263.176491,24.9331198 C259.52283,25.4298976 256.308016,27.024933 253.594419,29.6937213 C250.268476,32.9639894 248.582258,36.9727411 248.582258,41.6097051 L248.582258,44.1058464 L251.12009,44.1058464 L263.176491,44.1058464 L263.176491,49.8778251 L251.12009,49.8778251 L248.582258,49.8778251 L248.582258,52.3728525 L248.582258,74.9918357 L242.710546,74.9918357 L242.710546,41.6097051 C242.710546,35.3053054 244.913856,30.0735447 249.44748,25.6159108 C253.368758,21.7608706 257.879703,19.6189341 263.176491,19.1110178 L263.176491,19.1110178 Z M235.736612,19.1110178 L235.736612,24.9331198 C232.084085,25.4298976 228.869271,27.024933 226.15454,29.6937213 C222.829731,32.9639894 221.143513,36.9727411 221.143513,41.6097051 L221.143513,44.1058464 L223.680211,44.1058464 L235.736612,44.1058464 L235.736612,49.8778251 L223.680211,49.8778251 L221.143513,49.8778251 L221.143513,52.3728525 L221.143513,74.9918357 L215.271801,74.9918357 L215.271801,41.6097051 C215.271801,35.3053054 217.476245,30.0735447 222.008735,25.6159108 C225.930013,21.7608706 230.440958,19.6189341 235.736612,19.1110178 L235.736612,19.1110178 Z M288.686348,49.4868632 L292.423923,49.4868632 L319.570103,49.4868632 L323.309946,49.4868632 L321.929901,46.0706805 C321.097564,44.0145105 319.815041,42.1254183 318.118617,40.4557549 C314.79154,37.1854868 310.713773,35.5280757 305.99758,35.5280757 C301.281386,35.5280757 297.203619,37.1854868 293.877676,40.4557549 C292.180119,42.1265322 290.896461,44.0156244 290.066393,46.0706805 L288.686348,49.4868632 Z M328.832394,55.2599557 L292.423923,55.2599557 L288.686348,55.2599557 L290.066393,58.6761384 C290.896461,60.7300806 292.180119,62.6202867 293.877676,64.2899501 C297.203619,67.5613321 301.281386,69.2187432 305.99758,69.2187432 C310.713773,69.2187432 314.79154,67.5613321 318.118617,64.2899501 C318.268302,64.1418079 318.416852,63.9914379 318.563135,63.8377264 L325.892002,63.8377264 C324.91225,65.4416726 323.700032,66.9576246 322.263289,68.3677606 C317.731932,72.8253945 312.410197,74.9918357 305.99758,74.9918357 C299.583828,74.9918357 294.264361,72.8253945 289.730737,68.3677606 C285.197113,63.9101267 282.994937,58.6794799 282.994937,52.3728525 C282.994937,46.0673389 285.198247,40.8366921 289.730737,36.3790582 C294.264361,31.9225382 299.584962,29.7549831 305.99758,29.7549831 C312.409063,29.7549831 317.730798,31.9225382 322.263289,36.3790582 C326.796913,40.8366921 329.000222,46.0684528 329.000222,52.3728525 C329.000222,53.3541557 328.944658,54.319865 328.832394,55.2599557 L328.832394,55.2599557 Z M195.665408,64.291064 C198.991351,61.0207959 200.677568,57.0109303 200.677568,52.3739664 C200.677568,47.7347747 198.991351,43.726023 195.665408,40.4568687 C192.340599,37.1866006 188.261698,35.5280757 183.545504,35.5280757 C178.82931,35.5280757 174.751543,37.1866006 171.425601,40.4568687 C168.099658,43.726023 166.41344,47.7347747 166.41344,52.3739664 C166.41344,57.0109303 168.099658,61.0207959 171.425601,64.2899501 C174.751543,67.5602182 178.82931,69.2187432 183.545504,69.2187432 C188.261698,69.2187432 192.340599,67.5602182 195.665408,64.291064 L195.665408,64.291064 Z M199.812347,36.3790582 C204.344837,40.8366921 206.548147,46.0684528 206.548147,52.3739664 L206.548147,74.9918357 L200.677568,74.9918357 L200.677568,73.0381401 L200.677568,68.1962275 L196.666706,71.0064749 C192.840681,73.6875156 188.547459,74.9918357 183.545504,74.9918357 C177.132887,74.9918357 171.811151,72.8253945 167.278661,68.3677606 C162.746171,63.9101267 160.542862,58.6794799 160.542862,52.3739664 C160.542862,46.0684528 162.746171,40.8355783 167.278661,36.3790582 C171.812285,31.9214244 177.132887,29.7549831 183.545504,29.7549831 C189.958122,29.7549831 195.279857,31.9214244 199.812347,36.3790582 L199.812347,36.3790582 Z M143.123902,64.2899501 C146.449845,61.0207959 148.136063,57.0109303 148.136063,52.3739664 C148.136063,47.7347747 146.449845,43.726023 143.123902,40.4568687 C139.797959,37.1866006 135.720192,35.5280757 131.003999,35.5280757 C126.287805,35.5280757 122.210038,37.1866006 118.882961,40.4568687 C115.558152,43.726023 113.8708,47.7347747 113.8708,52.3739664 C113.8708,57.0109303 115.558152,61.0207959 118.882961,64.2899501 C122.210038,67.5602182 126.287805,69.2187432 131.003999,69.2187432 C135.720192,69.2187432 139.797959,67.5602182 143.123902,64.2899501 L143.123902,64.2899501 Z M147.269708,36.3790582 C151.803332,40.8366921 154.006641,46.0684528 154.006641,52.3739664 C154.006641,58.6783661 151.803332,63.9112406 147.269708,68.3677606 C142.737217,72.8253945 137.416616,74.9918357 131.003999,74.9918357 C124.590247,74.9918357 119.269646,72.8253945 114.737156,68.3677606 C110.204666,63.9112406 108.000222,58.6794799 108.000222,52.3739664 L108.000222,18.9918357 L113.8708,18.9918357 L113.8708,31.7086787 L113.8708,36.5494775 L117.881663,33.7403439 C121.708822,31.0593033 126.00091,29.7549831 131.003999,29.7549831 C137.416616,29.7549831 142.737217,31.9214244 147.269708,36.3790582 L147.269708,36.3790582 Z" id="Fill-1" fill="#000000"></path>
                <path d="M29.1155556,25.5296071 C27.94,25.4986071 26.9211111,25.0546429 26.0622222,24.1988214 C25.2355556,23.3751071 24.8066667,22.3764643 24.7744444,21.204 C24.7744444,20.0016429 25.2033333,18.9697857 26.0622222,18.1150714 C26.89,17.2913571 27.9077778,16.8806071 29.1155556,16.8795 C30.3222222,16.8806071 31.3411111,17.2913571 32.1677778,18.1150714 C33.0266667,18.9697857 33.4566667,20.0016429 33.4566667,21.204 C33.4244444,22.3764643 32.9944444,23.3751071 32.1677778,24.1988214 C31.31,25.0546429 30.2911111,25.4986071 29.1155556,25.5296071 L29.1155556,25.5296071 Z M61.9366667,25.5296071 C60.76,25.4986071 59.7411111,25.0546429 58.8833333,24.1988214 C58.0566667,23.3751071 57.6277778,22.3764643 57.5955556,21.204 C57.5955556,20.0016429 58.0244444,18.9697857 58.8833333,18.1150714 C59.71,17.2913571 60.7288889,16.8806071 61.9366667,16.8795 C63.1433333,16.8806071 64.1622222,17.2913571 64.9888889,18.1150714 C65.8477778,18.9697857 66.2766667,20.0016429 66.2766667,21.204 C66.2455556,22.3764643 65.8155556,23.3751071 64.9888889,24.1988214 C64.1311111,25.0546429 63.1122222,25.4986071 61.9366667,25.5296071 L61.9366667,25.5296071 Z M29.1155556,75.113 C27.94,75.082 26.9211111,74.6369286 26.0622222,73.7822143 C25.2355556,72.9573929 24.8066667,71.9598571 24.7744444,70.7862857 C24.7744444,69.5850357 25.2033333,68.5531786 26.0622222,67.6973571 C26.89,66.8736429 27.9077778,66.4628929 29.1155556,66.4617857 C30.3222222,66.4628929 31.3411111,66.8736429 32.1677778,67.6973571 C33.0266667,68.5531786 33.4566667,69.5850357 33.4566667,70.7862857 C33.4244444,71.9598571 32.9944444,72.9573929 32.1677778,73.7822143 C31.31,74.6369286 30.2911111,75.082 29.1155556,75.113 L29.1155556,75.113 Z M58.6,51.0625357 C59.4344444,50.2166786 60.4622222,49.7948571 61.6822222,49.79375 C62.9022222,49.7948571 63.93,50.2166786 64.7644444,51.0625357 C65.6322222,51.9405 66.0655556,53.0000357 66.0655556,54.2345 C66.0333333,55.4390714 65.6,56.4631786 64.7644444,57.3101429 L48.5444444,73.9571429 C47.6788889,74.8351071 46.65,75.29125 45.4622222,75.3233571 C44.2755556,75.29125 43.2466667,74.8351071 42.38,73.9571429 C41.5444444,73.1112857 41.1111111,72.0860714 41.0788889,70.8815 C41.0788889,69.6481429 41.5122222,68.5886071 42.38,67.7106429 L58.6,51.0625357 Z M45.42,8.65010714 C44.2444444,8.62021429 43.2255556,8.17514286 42.3666667,7.31932143 C41.54,6.49560714 41.1111111,5.49807143 41.0788889,4.32560714 C41.0788889,3.12214286 41.5088889,2.09139286 42.3666667,1.23557143 C43.1944444,0.411857143 44.2122222,-1.42108547e-14 45.42,-1.42108547e-14 C46.6277778,-1.42108547e-14 47.6455556,0.411857143 48.4733333,1.23557143 C49.3322222,2.09139286 49.7611111,3.12214286 49.7611111,4.32560714 C49.73,5.49807143 49.3011111,6.49560714 48.4733333,7.31932143 C47.6144444,8.17514286 46.5955556,8.62021429 45.42,8.65010714 L45.42,8.65010714 Z M45.42,91.9913929 C44.2444444,91.9615 43.2255556,91.5164286 42.3666667,90.6606071 C41.54,89.8368929 41.1111111,88.8393571 41.0788889,87.6668929 C41.0788889,86.4645357 41.5088889,85.4315714 42.3666667,84.5768571 C43.1944444,83.7531429 44.2122222,83.3412857 45.42,83.3412857 C46.6277778,83.3412857 47.6455556,83.7531429 48.4733333,84.5768571 C49.3311111,85.4315714 49.7611111,86.4645357 49.7611111,87.6668929 C49.7288889,88.8393571 49.3011111,89.8368929 48.4733333,90.6606071 C47.6144444,91.5164286 46.5955556,91.9615 45.42,91.9913929 L45.42,91.9913929 Z M58.6,34.8163214 C59.4344444,33.9704643 60.4622222,33.5475357 61.6822222,33.5475357 C62.9022222,33.5475357 63.93,33.9704643 64.7644444,34.8163214 C65.6322222,35.6942857 66.0655556,36.7538214 66.0655556,37.9882857 C66.0333333,39.19175 65.6,40.2169643 64.7644444,41.0628214 L48.5444444,57.7109286 C47.6788889,58.5888929 46.65,59.0450357 45.4622222,59.0771429 C44.2755556,59.0450357 43.2466667,58.5888929 42.38,57.7109286 C41.5444444,56.8650714 41.1111111,55.8398571 41.0788889,54.6363929 C41.0788889,53.4008214 41.5122222,52.3423929 42.38,51.4644286 L58.6,34.8163214 Z M78.2411111,42.1976429 C77.0655556,42.1666429 76.0466667,41.7226786 75.1877778,40.8668571 C74.3611111,40.0431429 73.9322222,39.0456071 73.9,37.8731429 C73.9,36.6707857 74.33,35.6389286 75.1877778,34.7831071 C76.0144444,33.9593929 77.0322222,33.5486429 78.2411111,33.5475357 C79.4477778,33.5486429 80.4666667,33.9593929 81.2933333,34.7831071 C82.1522222,35.6389286 82.5822222,36.6707857 82.5822222,37.8731429 C82.5488889,39.0456071 82.12,40.0431429 81.2933333,40.8668571 C80.4355556,41.7226786 79.4166667,42.1666429 78.2411111,42.1976429 L78.2411111,42.1976429 Z M29.1155556,58.4438571 C27.94,58.4139643 26.9211111,57.9688929 26.0622222,57.1130714 C25.2355556,56.2893571 24.8066667,55.2907143 24.7744444,54.11825 C24.7744444,52.9158929 25.2033333,51.8851429 26.0622222,51.0293214 C26.89,50.2056071 27.9077778,49.7948571 29.1155556,49.79375 C30.3222222,49.7948571 31.3411111,50.2056071 32.1677778,51.0293214 C33.0266667,51.8851429 33.4566667,52.9158929 33.4566667,54.11825 C33.4244444,55.2907143 32.9944444,56.2893571 32.1677778,57.1130714 C31.31,57.9688929 30.2911111,58.4139643 29.1155556,58.4438571 L29.1155556,58.4438571 Z M12.5988889,58.4438571 C11.4233333,58.4139643 10.4044444,57.9688929 9.54666667,57.1130714 C8.72,56.2893571 8.29,55.2907143 8.25888889,54.11825 C8.25888889,52.9158929 8.68777778,51.8851429 9.54666667,51.0293214 C10.3733333,50.2056071 11.3911111,49.7948571 12.5988889,49.79375 C13.8066667,49.7948571 14.8255556,50.2056071 15.6522222,51.0293214 C16.5111111,51.8851429 16.94,52.9158929 16.94,54.11825 C16.9088889,55.2907143 16.4788889,56.2893571 15.6522222,57.1130714 C14.7933333,57.9688929 13.7744444,58.4139643 12.5988889,58.4438571 L12.5988889,58.4438571 Z M37.1622222,16.8795 C35.9866667,16.8473929 34.9677778,16.4034286 34.1088889,15.5476071 C33.2822222,14.7238929 32.8533333,13.7263571 32.8211111,12.5538929 C32.8211111,11.3515357 33.2511111,10.3196786 34.1088889,9.46385714 C34.9355556,8.64014286 35.9544444,8.22939286 37.1622222,8.22828571 C38.3688889,8.22939286 39.3877778,8.64014286 40.2144444,9.46385714 C41.0733333,10.3196786 41.5022222,11.3515357 41.5022222,12.5538929 C41.4711111,13.7263571 41.0411111,14.7238929 40.2144444,15.5476071 C39.3555556,16.4034286 38.3377778,16.8473929 37.1622222,16.8795 L37.1622222,16.8795 Z M37.1622222,83.7631071 C35.9866667,83.7321071 34.9677778,83.2870357 34.1088889,82.4323214 C33.2822222,81.6086071 32.8533333,80.6099643 32.8211111,79.4375 C32.8211111,78.2351429 33.2511111,77.2032857 34.1088889,76.3485714 C34.9355556,75.52375 35.9544444,75.113 37.1622222,75.113 C38.3688889,75.113 39.3877778,75.52375 40.2144444,76.3485714 C41.0733333,77.2032857 41.5022222,78.2351429 41.5022222,79.4375 C41.4711111,80.6099643 41.0411111,81.6086071 40.2144444,82.4323214 C39.3555556,83.2870357 38.3377778,83.7321071 37.1622222,83.7631071 L37.1622222,83.7631071 Z M33.9955556,26.1662143 C34.8344444,25.3203571 35.8688889,24.8974286 37.0955556,24.8963214 C38.3211111,24.8974286 39.3555556,25.3203571 40.1955556,26.1662143 C41.0666667,27.0441786 41.5022222,28.1026071 41.5022222,29.3381786 C41.4711111,30.5416429 41.0344444,31.5668571 40.1955556,32.4127143 L24.0233333,49.0597143 C23.1522222,49.9387857 22.1188889,50.3938214 20.9244444,50.4270357 C19.73,50.3938214 18.6966667,49.9387857 17.8244444,49.0597143 C16.9844444,48.2138571 16.5488889,47.1886429 16.5166667,45.9862857 C16.5166667,44.7507143 16.9533333,43.6911786 17.8244444,42.8132143 L33.9955556,26.1662143 Z M7.50777778,49.0597143 C6.63666667,49.9387857 5.60222222,50.3938214 4.40777778,50.4270357 C3.21444444,50.3938214 2.18,49.9387857 1.30777778,49.0597143 C0.467777778,48.2138571 0.0322222222,47.1886429 4.97379915e-14,45.9862857 C4.97379915e-14,44.7507143 0.435555556,43.6911786 1.30777778,42.8132143 L17.4788889,26.1662143 C18.3188889,25.3203571 19.3522222,24.8974286 20.5788889,24.8963214 C21.8044444,24.8974286 22.8388889,25.3203571 23.6788889,26.1662143 C24.5511111,27.0441786 24.9866667,28.1026071 24.9866667,29.3381786 C24.9544444,30.5416429 24.5177778,31.5668571 23.6788889,32.4127143 L7.50777778,49.0597143 Z M50.2988889,26.1662143 C51.1388889,25.3203571 52.1722222,24.8974286 53.3988889,24.8963214 C54.6255556,24.8974286 55.66,25.3203571 56.4988889,26.1662143 C57.3711111,27.0441786 57.8066667,28.1026071 57.8066667,29.3381786 C57.7744444,30.5416429 57.3388889,31.5668571 56.4988889,32.4127143 L40.3288889,49.0597143 C39.4566667,49.9387857 38.4222222,50.3938214 37.2288889,50.4270357 C36.0344444,50.3938214 35,49.9387857 34.1288889,49.0597143 C33.2888889,48.2138571 32.8533333,47.1886429 32.8211111,45.9862857 C32.8211111,44.7507143 33.2566667,43.6911786 34.1288889,42.8132143 L50.2988889,26.1662143 Z M69.9822222,33.5475357 C68.8066667,33.5165357 67.7877778,33.0714643 66.93,32.21675 C66.1033333,31.3919286 65.6744444,30.3943929 65.6422222,29.2219286 C65.6422222,28.0195714 66.0711111,26.9877143 66.93,26.1318929 C67.7566667,25.3081786 68.7744444,24.8974286 69.9822222,24.8963214 C71.1911111,24.8974286 72.2088889,25.3081786 73.0355556,26.1318929 C73.8933333,26.9877143 74.3233333,28.0195714 74.3233333,29.2219286 C74.2911111,30.3943929 73.8622222,31.3919286 73.0355556,32.21675 C72.1766667,33.0714643 71.1577778,33.5165357 69.9822222,33.5475357 L69.9822222,33.5475357 Z M37.1622222,67.0950714 C35.9866667,67.0640714 34.9677778,66.619 34.1088889,65.7642857 C33.2822222,64.9405714 32.8533333,63.9419286 32.8211111,62.7694643 C32.8211111,61.5671071 33.2511111,60.53525 34.1088889,59.6794286 C34.9355556,58.8557143 35.9544444,58.4449643 37.1622222,58.4438571 C38.3688889,58.4449643 39.3877778,58.8557143 40.2144444,59.6794286 C41.0733333,60.53525 41.5022222,61.5671071 41.5022222,62.7694643 C41.4711111,63.9419286 41.0411111,64.9405714 40.2144444,65.7642857 C39.3555556,66.619 38.3377778,67.0640714 37.1622222,67.0950714 L37.1622222,67.0950714 Z M20.6455556,67.0950714 C19.47,67.0640714 18.4511111,66.619 17.5922222,65.7642857 C16.7655556,64.9405714 16.3366667,63.9419286 16.3044444,62.7694643 C16.3044444,61.5671071 16.7333333,60.53525 17.5922222,59.6794286 C18.42,58.8557143 19.4377778,58.4449643 20.6455556,58.4438571 C21.8533333,58.4449643 22.8711111,58.8557143 23.6988889,59.6794286 C24.5566667,60.53525 24.9866667,61.5671071 24.9866667,62.7694643 C24.9544444,63.9419286 24.5255556,64.9405714 23.6988889,65.7642857 C22.84,66.619 21.8211111,67.0640714 20.6455556,67.0950714 L20.6455556,67.0950714 Z M69.9822222,50.2155714 C68.8066667,50.1845714 67.7877778,49.7406071 66.93,48.8847857 C66.1033333,48.0610714 65.6744444,47.0624286 65.6422222,45.8899643 C65.6422222,44.6876071 66.0711111,43.65575 66.93,42.8010357 C67.7566667,41.9762143 68.7744444,41.5654643 69.9822222,41.5643571 C71.1911111,41.5654643 72.2088889,41.9762143 73.0355556,42.8010357 C73.8933333,43.65575 74.3233333,44.6876071 74.3233333,45.8899643 C74.2911111,47.0624286 73.8622222,48.0610714 73.0355556,48.8847857 C72.1766667,49.7406071 71.1577778,50.1845714 69.9822222,50.2155714 L69.9822222,50.2155714 Z M45.2077778,18.3564286 C46.0266667,18.3564286 46.6633333,18.6110714 47.2111111,19.158 C47.7955556,19.73925 48.0666667,20.3891429 48.0666667,21.1597143 C48.0455556,21.9590714 47.7733333,22.5923571 47.2111111,23.1525714 C46.6266667,23.7360357 45.9888889,24.0227857 45.2077778,24.0526786 C44.4266667,24.0227857 43.79,23.7360357 43.2044444,23.1525714 C42.6422222,22.5923571 42.3711111,21.9590714 42.35,21.2051071 C42.35,20.3891429 42.6211111,19.73925 43.2044444,19.158 C43.7522222,18.6110714 44.3888889,18.3564286 45.2077778,18.3564286 L45.2077778,18.3564286 Z M61.7244444,68.3605357 C62.5422222,68.3616429 63.18,68.6162857 63.7277778,69.1632143 C64.3111111,69.7433571 64.5822222,70.39325 64.5833333,71.1649286 C64.5611111,71.9631786 64.29,72.5964643 63.7288889,73.1577857 C63.1433333,73.7401429 62.5044444,74.0268929 61.7244444,74.0578929 C60.9433333,74.0268929 60.3055556,73.7401429 59.72,73.1577857 C59.1588889,72.5964643 58.8866667,71.9631786 58.8655556,71.2092143 C58.8655556,70.39325 59.1377778,69.7433571 59.72,69.1632143 C60.2688889,68.6162857 60.9055556,68.3616429 61.7244444,68.3605357 L61.7244444,68.3605357 Z M78.0288889,51.4810357 C78.8477778,51.4821429 79.4844444,51.7367857 80.0333333,52.2837143 C80.6155556,52.8638571 80.8866667,53.5148571 80.8877778,54.2854286 C80.8655556,55.0847857 80.5944444,55.7180714 80.0333333,56.2771786 C79.4477778,56.86175 78.81,57.1485 78.0288889,57.1783929 C77.2477778,57.1485 76.61,56.86175 76.0244444,56.2771786 C75.4633333,55.7180714 75.1922222,55.0847857 75.17,54.3308214 C75.17,53.5148571 75.4422222,52.8638571 76.0244444,52.2837143 C76.5733333,51.7367857 77.21,51.4821429 78.0288889,51.4810357 L78.0288889,51.4810357 Z M53.4666667,9.91557143 C54.2844444,9.91667857 54.9222222,10.1724286 55.47,10.71825 C56.0522222,11.2995 56.3244444,11.9493929 56.3244444,12.7199643 C56.3033333,13.5193214 56.0311111,14.1526071 55.47,14.7128214 C54.8844444,15.2962857 54.2466667,15.5830357 53.4666667,15.6129286 C52.6844444,15.5830357 52.0477778,15.2962857 51.4622222,14.7128214 C50.9,14.1526071 50.6288889,13.5193214 50.6077778,12.7653571 C50.6077778,11.9493929 50.8788889,11.2995 51.4622222,10.71825 C52.01,10.1724286 52.6466667,9.91667857 53.4666667,9.91557143 L53.4666667,9.91557143 Z M53.4666667,76.3784643 C54.2844444,76.3784643 54.9222222,76.6342143 55.47,77.1800357 C56.0522222,77.7612857 56.3244444,78.4122857 56.3244444,79.18175 C56.3033333,79.9822143 56.0311111,80.6143929 55.47,81.1746071 C54.8844444,81.7580714 54.2466667,82.0448214 53.4666667,82.0747143 C52.6844444,82.0448214 52.0477778,81.7580714 51.4622222,81.1746071 C50.9,80.6143929 50.6288889,79.9822143 50.6077778,79.2271429 C50.6077778,78.4122857 50.8788889,77.7612857 51.4622222,77.1800357 C52.01,76.6342143 52.6466667,76.3784643 53.4666667,76.3784643 L53.4666667,76.3784643 Z M69.77,59.7104286 C70.59,59.7104286 71.2255556,59.9661786 71.7744444,60.512 C72.3566667,61.09325 72.6288889,61.7431429 72.63,62.5137143 C72.6077778,63.3130714 72.3355556,63.9463571 71.7744444,64.5065714 C71.1888889,65.0900357 70.5511111,65.3767857 69.77,65.4066786 C68.99,65.3767857 68.3522222,65.0900357 67.7666667,64.5065714 C67.2055556,63.9463571 66.9333333,63.3130714 66.9122222,62.5591071 C66.9122222,61.7431429 67.1833333,61.09325 67.7666667,60.512 C68.3144444,59.9661786 68.9522222,59.7104286 69.77,59.7104286 L69.77,59.7104286 Z M86.71,43.4642143 C87.5288889,43.4642143 88.1666667,43.7199643 88.7144444,44.2657857 C89.2966667,44.8470357 89.5688889,45.4969286 89.5688889,46.2675 C89.5477778,47.0668571 89.2755556,47.7001429 88.7144444,48.2603571 C88.1288889,48.8438214 87.4911111,49.1305714 86.71,49.1604643 C85.9288889,49.1305714 85.2922222,48.8438214 84.7055556,48.2603571 C84.1444444,47.7001429 83.8733333,47.0668571 83.8522222,46.3128929 C83.8522222,45.4969286 84.1233333,44.8470357 84.7055556,44.2657857 C85.2544444,43.7199643 85.8911111,43.4642143 86.71,43.4642143 L86.71,43.4642143 Z" id="Fill-6" fill="#009B9B"></path>
            </g>
        </g>
    </g>
</svg>